<?xml version="1.0" encoding="utf-8"?>
<!-- Generator: Adobe Illustrator 24.2.3, SVG Export Plug-In . SVG Version: 6.00 Build 0)  -->
<svg version="1.1" id="Capa_1" xmlns="http://www.w3.org/2000/svg" xmlns:xlink="http://www.w3.org/1999/xlink" x="0px" y="0px"
	 viewBox="0 0 438.5 438.5" style="enable-background:new 0 0 438.5 438.5;" xml:space="preserve">
<style type="text/css">
	.st0{fill:#878789;}
</style>
<g>
	<path class="st0" d="M407.4,115.6c-19.4-33.3-45.8-59.6-79-79c-33.3-19.4-69.6-29.1-109-29.1c-39.4,0-75.7,9.7-109,29.1
		c-33.3,19.4-59.6,45.8-79,79c-19.4,33.3-29.1,69.6-29.1,109c0,47.3,13.8,89.9,41.4,127.7c27.6,37.8,63.3,64,107,78.5
		c5.1,0.9,8.9,0.3,11.3-2c2.5-2.3,3.7-5.1,3.7-8.5c0-0.6,0-5.7-0.1-15.3c-0.1-9.6-0.1-18-0.1-25.2l-6.5,1.1c-4.1,0.8-9.4,1.1-15.7,1
		c-6.3-0.1-12.9-0.7-19.7-2c-6.8-1.2-13.1-4-18.9-8.5c-5.8-4.4-10-10.2-12.4-17.4l-2.8-6.5c-1.9-4.3-4.9-9.1-8.9-14.4
		c-4.1-5.3-8.2-8.9-12.3-10.7l-2-1.4c-1.3-0.9-2.5-2.1-3.7-3.4c-1.1-1.3-2-2.6-2.5-4c-0.6-1.3-0.1-2.4,1.4-3.3
		c1.5-0.9,4.2-1.3,8.2-1.3l5.7,0.8c3.8,0.8,8.4,3,14,6.8c5.6,3.8,10.1,8.7,13.7,14.7c4.3,7.7,9.6,13.6,15.7,17.7
		c6.1,4.1,12.3,6.1,18.5,6.1s11.6-0.5,16.1-1.4c4.5-0.9,8.8-2.4,12.7-4.2c1.7-12.6,6.3-22.3,13.9-29.1c-10.7-1.1-20.4-2.8-29-5.1
		c-8.6-2.3-17.4-5.9-26.6-11c-9.1-5.1-16.7-11.4-22.8-18.9c-6-7.5-11-17.4-14.8-29.7c-3.9-12.3-5.8-26.4-5.8-42.4
		c0-22.8,7.4-42.2,22.3-58.3c-7-17.2-6.3-36.4,2-57.7c5.5-1.7,13.6-0.4,24.3,3.8c10.7,4.2,18.6,7.9,23.6,10.9c5,3,9,5.6,12,7.6
		c17.5-4.9,35.6-7.4,54.3-7.4s36.8,2.5,54.3,7.4l10.7-6.8c7.3-4.5,16-8.7,26-12.4c10-3.8,17.6-4.8,22.9-3.1
		c8.5,21.3,9.2,40.5,2.3,57.7c14.9,16,22.3,35.4,22.3,58.3c0,16-1.9,30.2-5.8,42.6c-3.9,12.4-8.9,22.2-15,29.7
		c-6.1,7.4-13.8,13.7-22.9,18.8c-9.1,5.1-18,8.8-26.6,11c-8.6,2.3-18.2,4-29,5.1c9.8,8.5,14.7,21.9,14.7,40.2v59.7
		c0,3.4,1.2,6.2,3.5,8.5c2.4,2.3,6.1,2.9,11.2,2c43.7-14.5,79.4-40.7,107-78.5c27.6-37.8,41.4-80.4,41.4-127.7
		C436.5,185.2,426.8,148.9,407.4,115.6z"/>
</g>
</svg>
